<svg width="26" height="18" viewBox="0 0 26 18" fill="none" xmlns="http://www.w3.org/2000/svg">
<path d="M20.5833 6.83333H19.695L17.8533 1.76333C17.7009 1.34527 17.4239 0.984033 17.0597 0.728329C16.6955 0.472625 16.2617 0.33476 15.8167 0.333328H14.0833C13.4875 0.333328 13 0.820828 13 1.41666C13 2.01249 13.4875 2.49999 14.0833 2.49999H15.8167L17.3983 6.83333H12.1875L11.7975 5.74999H11.895C12.4908 5.74999 12.9783 5.26249 12.9783 4.66666C12.9783 4.07083 12.4908 3.58333 11.895 3.58333H8.66667C8.07083 3.58333 7.58333 4.07083 7.58333 4.66666C7.58333 5.26249 8.07083 5.74999 8.66667 5.74999H9.47917L11.4508 11.1667H10.725C10.2483 8.75083 8.2225 6.96333 5.6875 6.84416C2.65417 6.69249 0 9.21666 0 12.25C0 15.2833 2.38333 17.6667 5.41667 17.6667C8.08167 17.6667 10.2375 15.8358 10.725 13.3333H15.275C15.7517 15.7492 17.7775 17.5367 20.3125 17.6558C23.3458 17.7967 26 15.2833 26 12.2392C26 9.21666 23.6167 6.83333 20.5833 6.83333ZM6.5 13.3333H8.47167C8.01667 14.6658 6.73833 15.5867 5.2 15.4892C3.58583 15.3917 2.2425 14.0267 2.16667 12.4017C2.09083 10.5058 3.5425 8.99999 5.41667 8.99999C6.8575 8.99999 8.03833 9.89916 8.47167 11.1667H6.5C5.90417 11.1667 5.41667 11.6542 5.41667 12.25C5.41667 12.8458 5.90417 13.3333 6.5 13.3333ZM15.275 11.1667H13.7583L12.9675 8.99999H16.25C15.7733 9.62833 15.4267 10.3542 15.275 11.1667ZM20.4533 15.5C18.785 15.435 17.3767 14.0158 17.3333 12.3367C17.3117 11.2967 17.7558 10.3867 18.4708 9.77999L19.1425 11.6217C19.3483 12.185 19.9658 12.4775 20.5292 12.2717C21.0925 12.0658 21.385 11.4483 21.1792 10.885L20.4967 9.01083L20.5075 8.99999C20.9418 8.98518 21.3747 9.05855 21.7799 9.21566C22.1851 9.37277 22.5543 9.61038 22.8651 9.91412C23.1759 10.2179 23.422 10.5814 23.5884 10.9829C23.7548 11.3844 23.8381 11.8154 23.8333 12.25C23.8333 14.1133 22.3383 15.565 20.4533 15.5Z" fill="url(#paint0_linear_44_183)"/>
<defs>
<linearGradient id="paint0_linear_44_183" x1="13" y1="0.333328" x2="13" y2="17.6667" gradientUnits="userSpaceOnUse">
<stop stop-color="#FFB60D"/>
<stop offset="1" stop-color="#E59317"/>
</linearGradient>
</defs>
</svg>
